<svg width="157" height="40" viewBox="0 0 157 40" fill="none" xmlns="http://www.w3.org/2000/svg">
<rect width="40" height="40" rx="6" fill="#F04923"/>
<path d="M91.6796 10.0806L89.6869 12.0967H84.6654V29.758H82.0351V12.1773H75.7383L77.8106 10.1612H91.6796V10.0806Z" fill="#1A202C"/>
<path d="M59 10.7258L61.6303 10V29.6774H59V10.7258Z" fill="#1A202C"/>
<path d="M64.5795 15.8871H66.8112L66.9707 19.0323C68.0865 17.0162 69.9198 15.7258 72.0719 15.7258C75.2601 15.7258 77.3325 17.3387 77.3325 19.8387V29.9194H74.8616V20.242C74.8616 18.6291 73.666 17.5807 71.8328 17.5807C69.1227 17.5807 66.9707 20.0807 66.9707 23.1452V29.9194H64.4998V15.8871H64.5795Z" fill="#1A202C"/>
<path d="M93.3534 15.7258C97.0199 15.7258 99.4111 18.2258 99.4111 21.9355V22.6613C99.4111 23.4678 98.9329 23.871 98.2155 23.871H89.3681C89.6869 26.5323 91.2811 27.9839 93.9911 27.9839C95.3461 27.9839 96.5417 27.6613 97.6576 26.8549V29.5161C96.3823 29.9194 95.3461 30 93.9911 30C89.7667 30 86.8972 27.0968 86.8972 22.8226C86.8972 18.5484 89.5275 15.7258 93.3534 15.7258ZM89.3681 23.5484L90.9622 22.0162H97.1794C97.1794 19.1129 95.8243 17.5 93.4331 17.5C90.8028 17.5 89.3681 19.3549 89.3681 22.8226C89.3681 23.1452 89.3681 23.3871 89.3681 23.5484Z" fill="#1A202C"/>
<path d="M101.484 15.8871H103.715L103.875 19.0323C104.991 17.0162 106.824 15.7258 108.976 15.7258C112.164 15.7258 114.237 17.3387 114.237 19.8387V29.9194H111.766V20.242C111.766 18.6291 110.57 17.5807 108.737 17.5807C106.027 17.5807 103.875 20.0807 103.875 23.1452V29.9194H101.404V15.8871H101.484Z" fill="#1A202C"/>
<path d="M122.128 15.8871H125.475L126.91 17.5L127.229 15.8871H129.381V26.0484C129.381 27.6613 129.54 29.9193 129.54 29.9193L127.388 29.758L127.229 26.371C126.193 28.5484 124.28 30 122.048 30C118.541 30 116.229 27.0968 116.229 22.8226C116.15 18.7097 118.541 15.8871 122.128 15.8871ZM122.367 28.2258C124.838 28.2258 126.91 25.8064 126.91 22.9032V17.7419H122.367C120.135 17.7419 118.7 19.7581 118.7 22.9032C118.7 26.129 120.135 28.2258 122.367 28.2258Z" fill="#1A202C"/>
<path d="M132.41 15.8871H134.641L134.801 19.0323C135.917 17.0162 137.75 15.7258 139.902 15.7258C143.09 15.7258 145.163 17.3387 145.163 19.8387V29.9194H142.692V20.242C142.692 18.6291 141.496 17.5807 139.663 17.5807C136.953 17.5807 134.801 20.0807 134.801 23.1452V29.9194H132.41V15.8871Z" fill="#1A202C"/>
<path d="M150.344 10.9678V15.8871H155.843V17.742H150.344V24.7581C150.344 27.0162 151.22 28.2258 152.894 28.2258C154.01 28.2258 155.285 27.742 156.242 27.0968V29.5162C155.206 29.8387 153.93 30 152.894 30C149.626 30 147.873 28.1452 147.873 24.6774V11.9355L150.344 10.9678Z" fill="#1A202C"/>
<path fill-rule="evenodd" clip-rule="evenodd" d="M31.7233 34.3986V5.71436L8.57141 11.1446V34.3986H19.1125V29.9128H21.4114L24.5686 34.385L24.6305 34.3413V34.3986H31.7233ZM24.6305 31.9116V23.3338H22.6592V29.1193L24.6305 31.9116ZM21.1822 21.8568V18.7484H15.6641V28.4358H17.6354V21.8568H21.1822ZM22.6592 21.8568V17.2714H14.1871V29.9128H14.3814L16.6117 32.9216H10.0484V12.3152L30.2463 7.57787V32.9216H26.1075V21.8568H22.6592ZM17.6354 31.8224L16.22 29.9128H17.6354V31.8224ZM19.1125 28.4358V23.3338H21.1822V28.4358H19.1125Z" fill="#F4F8FA"/>
</svg>
