<svg width="215" height="23" viewBox="0 0 215 23" fill="none" xmlns="http://www.w3.org/2000/svg">
<path d="M185.12 3.05033C187.911 3.06672 190.702 3.05033 193.492 3.05033C194.5 3.05033 195.508 3.06282 196.514 3.05033C197.308 3.03783 197.821 2.33669 197.612 1.5887C197.476 1.09992 196.994 0.784485 196.358 0.784485C192.132 0.784485 187.904 0.784485 183.675 0.784485C182.731 0.784485 182.32 1.21548 182.32 2.19771C182.32 4.45028 182.32 6.70363 182.32 8.95543C182.32 11.0534 182.32 13.1514 182.32 15.2501C182.305 16.3916 182.58 17.5168 183.117 18.5107C184.552 21.1256 186.794 22.2874 189.611 22.3959C191.761 22.4787 193.741 21.9704 195.387 20.4486C196.823 19.1228 197.634 17.4613 197.643 15.4344C197.643 14.4678 196.789 13.933 195.949 14.339C195.396 14.6068 195.297 15.0994 195.266 15.6577C195.186 17.0686 194.546 18.1719 193.489 19.019C192.253 20.0083 190.819 20.173 189.319 20.0895C186.483 19.9302 184.553 17.5542 184.685 15.0182C184.706 14.6052 184.768 14.4748 185.19 14.4834C186.808 14.5131 188.426 14.5021 190.044 14.4834C190.319 14.4912 190.586 14.3921 190.795 14.2047C191.002 14.0181 191.138 13.7565 191.172 13.4715C191.186 13.185 191.099 12.9023 190.929 12.6782C190.758 12.4541 190.515 12.3034 190.245 12.2543C190.05 12.2222 189.851 12.2098 189.654 12.2176C188.134 12.2176 186.614 12.2051 185.095 12.2176C184.749 12.2176 184.654 12.1379 184.656 11.7686C184.673 9.01789 184.673 6.2664 184.656 3.51412C184.647 3.14793 184.747 3.04876 185.12 3.05033Z" fill="#7AB7B7"/>
<path d="M149.163 3.95996C147.763 1.93694 145.773 0.975012 143.422 0.759515C143.412 0.729845 143.412 0.697834 143.422 0.668945H136.082C136.084 0.697834 136.084 0.726718 136.082 0.755607C135.325 1.01092 135.114 1.31309 135.114 2.14697C135.114 8.42606 135.114 14.7052 135.114 20.985C135.109 21.0881 135.109 21.1912 135.114 21.2942C135.137 21.6081 135.277 21.9001 135.503 22.107C135.729 22.3139 136.024 22.4193 136.324 22.4014C136.615 22.4076 136.898 22.2967 137.113 22.0906C137.328 21.8845 137.458 21.5987 137.477 21.2942C137.493 21.1131 137.49 20.9179 137.49 20.7274C137.49 15.0183 137.49 9.31616 137.479 3.59767C137.479 3.10812 137.615 3.01287 138.051 3.0199C139.607 3.04722 141.163 3.03784 142.707 3.02848C143.717 3.01442 144.713 3.26975 145.601 3.77179C147.804 5.01559 148.686 7.67339 147.584 9.87365C146.853 11.3431 145.61 12.1325 144.111 12.5314C143.235 12.7649 142.339 12.6704 141.449 12.6939C140.699 12.7142 140.216 13.1506 140.2 13.8026C140.187 14.4241 140.645 14.9441 141.342 14.98C143.189 15.0799 144.99 14.8965 146.679 13.9931C150.414 11.9857 151.578 7.44305 149.163 3.95996Z" fill="#7AB7B7"/>
<path d="M161.813 13.2771C161.497 12.3339 161.223 12.1418 160.24 12.1418C158.49 12.1418 156.74 12.1418 154.989 12.1418C154.804 12.1418 154.526 12.2543 154.673 11.8233C155.364 9.78307 156.045 7.73663 156.747 5.64412H156.761C156.82 5.78544 156.867 5.88928 156.903 5.99391C157.304 7.20725 157.696 8.42685 158.113 9.63629C158.161 9.80728 158.243 9.96577 158.352 10.1016C158.461 10.2375 158.596 10.3484 158.749 10.4272C158.901 10.5053 159.068 10.5498 159.237 10.5576C159.408 10.5654 159.576 10.5357 159.735 10.4717C160.382 10.2273 160.613 9.65659 160.352 8.87424C159.557 6.47722 158.75 4.08645 157.954 1.69021C157.786 1.19598 157.503 0.850083 157.002 0.754046C157.004 0.725157 157.004 0.697054 157.002 0.668945H156.5C156.496 0.697054 156.496 0.725157 156.5 0.754046C156.28 0.822755 156.08 0.948458 155.919 1.12023C155.758 1.292 155.641 1.5036 155.579 1.7355C153.919 6.71926 152.247 11.6991 150.564 16.6759C150.108 18.0336 149.656 19.3922 149.218 20.7563C148.99 21.4629 149.168 21.9571 149.71 22.2491C149.866 22.3381 150.039 22.3904 150.216 22.4014C150.392 22.4123 150.57 22.3819 150.734 22.3124C150.899 22.2437 151.046 22.1367 151.167 22C151.287 21.8642 151.378 21.7018 151.431 21.5246C152.171 19.3274 152.909 17.1279 153.63 14.9238C153.743 14.5779 153.881 14.442 154.251 14.4475C155.917 14.4717 157.585 14.4717 159.253 14.4475C159.608 14.4475 159.759 14.556 159.876 14.9097C160.612 17.1467 161.369 19.3743 162.124 21.6003C162.335 22.2148 162.844 22.4896 163.461 22.3725C164.078 22.2546 164.368 21.8291 164.414 21.1802C164.438 20.8179 164.227 20.5751 164.13 20.2745C163.369 17.9376 162.597 15.6054 161.813 13.2771Z" fill="#7AB7B7"/>
<path d="M214.804 15.949C214.391 13.2552 212.556 11.8771 210.285 10.9949C209.639 10.745 208.95 11.0893 208.753 11.6523C208.528 12.2972 208.821 12.8555 209.565 13.167C210.261 13.4356 210.903 13.84 211.455 14.3585C212.97 15.8381 212.838 17.8166 211.122 19.0268C209.688 20.0356 208.084 20.28 206.393 20.0223C205.18 19.8599 204.035 19.3391 203.093 18.5209C202.967 18.4014 202.818 18.3101 202.657 18.2531C202.497 18.1961 202.326 18.1742 202.157 18.1898C201.987 18.2047 201.822 18.2562 201.673 18.3413C201.524 18.4256 201.393 18.542 201.288 18.6825C200.892 19.2126 201.039 19.8342 201.664 20.3651C203.35 21.7908 205.314 22.3577 207.475 22.399C209.407 22.3717 211.25 21.9228 212.823 20.6548C214.289 19.4742 215.107 17.9158 214.804 15.949Z" fill="#7AB7B7"/>
<path d="M127.405 10.9067C126.913 10.8575 126.335 11.2361 126.195 11.7015C126.117 11.9591 126.131 12.2371 126.234 12.4846C126.337 12.7321 126.523 12.9312 126.757 13.0452C126.975 13.1655 127.214 13.2428 127.435 13.3536C128.443 13.8463 129.324 14.4928 129.772 15.6047C130.29 16.9164 129.753 18.282 128.377 19.1752C126.221 20.5752 122.819 20.3831 120.818 18.7473C120.656 18.5998 120.482 18.4662 120.3 18.3476C120.028 18.1969 119.712 18.1563 119.414 18.2328C119.114 18.3093 118.853 18.4975 118.678 18.7622C118.374 19.2712 118.505 19.849 119.042 20.298C120.756 21.7815 122.765 22.3632 124.748 22.396C126.739 22.396 128.514 21.8884 129.834 20.9866C131.044 20.166 131.909 19.0807 132.209 17.5808C132.781 14.7067 130.235 11.1893 127.405 10.9067Z" fill="#7AB7B7"/>
<path d="M205.444 12.1832C205.611 12.2293 205.787 12.234 205.956 12.1965C206.126 12.1598 206.285 12.0817 206.421 11.97C206.557 11.8576 206.667 11.7139 206.742 11.5492C206.816 11.3852 206.853 11.2057 206.849 11.0237C206.832 10.3796 206.408 10.1188 205.906 9.91345C204.982 9.57849 204.173 8.96635 203.58 8.15277C203.205 7.6437 203.019 7.00891 203.058 6.36711C203.097 5.7253 203.358 5.12019 203.791 4.66421C204.207 4.19339 204.72 3.82721 205.29 3.59376C207.833 2.58107 210.228 2.8114 212.421 4.57754C213.024 5.06085 213.805 5.02884 214.244 4.48151C214.683 3.93417 214.529 3.30252 213.884 2.75518C212.441 1.53247 210.773 0.943755 208.936 0.762612C208.931 0.733722 208.931 0.703267 208.936 0.674377H207.25C207.252 0.703267 207.252 0.732162 207.25 0.761051C205.521 0.942194 203.917 1.44034 202.565 2.61777C201.146 3.85298 200.478 5.42547 200.774 7.36495C201.147 9.88456 203.53 11.6054 205.444 12.1832Z" fill="#7AB7B7"/>
<path d="M122.948 12.1887C123.721 12.4042 124.407 11.678 124.295 10.8738C124.227 10.3897 123.904 10.1329 123.503 9.96812C122.773 9.69484 122.101 9.27557 121.523 8.73448C120.113 7.38294 120.159 5.47391 121.679 4.25667C123.137 3.09251 124.82 2.83875 126.598 3.08861C127.83 3.25179 128.992 3.78272 129.945 4.61738C130.073 4.73372 130.223 4.82118 130.385 4.87427C130.547 4.92736 130.717 4.94454 130.886 4.9258C131.055 4.90628 131.218 4.85162 131.366 4.76339C131.512 4.67516 131.641 4.55648 131.743 4.41438C132.109 3.89984 131.957 3.27677 131.359 2.77004C129.907 1.5364 128.222 0.932845 126.383 0.757168C126.378 0.728278 126.378 0.697834 126.383 0.668945H124.699C124.705 0.697834 124.705 0.728278 124.699 0.757168C123.03 0.929722 121.475 1.39352 120.159 2.49286C118.624 3.76086 117.875 5.39973 118.238 7.46804C118.685 10.0095 121.132 11.6851 122.948 12.1887Z" fill="#7AB7B7"/>
<path d="M178.422 18.3928C178.219 18.3569 178.011 18.3702 177.813 18.4311C177.616 18.492 177.434 18.5989 177.281 18.7442C175.822 19.9942 174.161 20.3635 172.325 19.9669C170.142 19.4961 168.521 17.7369 168.336 15.5742C168.276 14.8496 168.32 14.125 168.313 13.4005C168.313 12.6509 167.84 12.1613 167.148 12.1668C166.991 12.1613 166.835 12.1895 166.69 12.2496C166.543 12.3105 166.411 12.4018 166.301 12.5189C166.19 12.6353 166.104 12.775 166.048 12.9281C165.992 13.0819 165.967 13.2459 165.974 13.4098C165.965 13.8229 165.974 14.2336 165.974 14.7918C165.916 15.9138 166.123 17.0335 166.575 18.0524C168.614 22.5388 174.969 23.97 178.986 20.3581C179.149 20.223 179.267 20.0379 179.325 19.8287C179.384 19.6202 179.378 19.3969 179.311 19.1916C179.256 18.98 179.143 18.791 178.985 18.6481C178.826 18.5052 178.63 18.4162 178.422 18.3928Z" fill="#7AB7B7"/>
<path d="M178.797 2.66068C177.262 1.34973 175.321 0.677469 173.343 0.771945C169.52 0.883597 165.704 3.8506 165.969 8.51894C165.969 8.79221 165.948 9.13809 165.969 9.47852C166.017 10.1492 166.508 10.5872 167.168 10.5763C167.829 10.5654 168.283 10.1258 168.305 9.42464C168.316 8.97881 168.305 8.53142 168.305 8.08403C168.282 7.16895 168.528 6.26792 169.008 5.50274C170.309 3.40867 173.157 2.48188 175.551 3.37823C176.216 3.63901 176.837 4.01457 177.384 4.4885C177.509 4.6025 177.655 4.68917 177.813 4.74304C177.97 4.79614 178.136 4.81565 178.302 4.79925C178.467 4.78364 178.626 4.73289 178.772 4.65013C178.917 4.56736 179.045 4.45415 179.148 4.31829C179.524 3.81468 179.396 3.17209 178.797 2.66068Z" fill="#7AB7B7"/>
<path d="M75.0448 11.6617C75.0448 8.48073 75.0448 5.29981 75.0448 2.11966C75.0448 1.61605 74.9166 1.21394 74.4728 0.954718C74.2861 0.846969 74.0767 0.792312 73.8634 0.796216C73.6509 0.80012 73.443 0.863365 73.261 0.978141C73.0789 1.0937 72.9289 1.25688 72.8258 1.45207C72.7234 1.64727 72.6718 1.86746 72.6757 2.09077C72.7211 5.47548 72.6937 8.86488 72.6937 12.2519C72.6937 15.1924 72.6937 18.1321 72.6937 21.0717C72.6937 21.4902 72.7726 21.8595 73.1016 22.1258C73.2828 22.2788 73.5024 22.3741 73.7337 22.3998C73.965 22.4256 74.1986 22.3803 74.4064 22.271C74.8596 22.0586 75.0479 21.6745 75.0479 21.1529C75.0346 17.9907 75.0448 14.8262 75.0448 11.6617Z" fill="#497474"/>
<path d="M79.2086 13.1381C79.2086 12.6275 78.932 12.3027 78.4999 12.127C77.6834 11.7936 76.8818 12.3643 76.8677 13.3067C76.849 14.6146 76.8677 15.92 76.8677 17.2279C76.8677 18.5357 76.8576 19.8396 76.8677 21.1474C76.8677 21.8907 77.324 22.367 77.9827 22.3959C78.6968 22.4248 79.1742 22.0102 79.2054 21.2325C79.2484 20.1863 79.2429 19.1353 79.2398 18.0883C79.2383 16.4385 79.2211 14.7973 79.2086 13.1381Z" fill="#497474"/>
<path d="M14.9689 5.49729C13.7362 2.5303 11.4401 1.09599 8.4284 0.760247C8.41895 0.731358 8.41895 0.699348 8.4284 0.669678H0.994091C0.985731 0.698567 0.985731 0.729797 0.994091 0.758686C0.556701 0.879709 0.195332 1.07959 0.0846953 1.5754H0.0397695L0 1.59882V9.85566L0.0363329 9.88611L0.0829785 9.87674C0.299095 10.5022 0.803915 10.848 1.36062 10.7536C2.03147 10.638 2.379 10.2015 2.379 9.46917C2.379 7.45708 2.379 5.44498 2.379 3.43445C2.379 3.1479 2.40143 3.01361 2.74029 3.01751C4.45712 3.03937 6.17394 3.01751 7.89069 3.02844C8.89986 3.03703 9.88817 3.32983 10.7521 3.87638C12.4567 4.92655 13.3817 7.02764 12.9668 8.87187C12.5968 10.4514 11.0927 11.7194 9.22372 12.027C8.25721 12.1863 7.2839 12.1613 6.31052 12.1832C5.6449 12.1972 5.17461 12.6681 5.15563 13.2802C5.13656 13.8931 5.58263 14.3671 6.25168 14.4365C6.39951 14.4483 6.54781 14.4529 6.69603 14.449C7.83537 14.449 8.97471 14.4326 10.114 14.449C11.8776 14.4795 13.3575 16.3058 12.9996 17.9868C12.7264 19.2743 11.5716 20.1144 10.0432 20.1183C7.64871 20.1183 5.25416 20.1183 2.8596 20.1183C2.49136 20.1183 2.36338 20.0481 2.36861 19.6257C2.39104 17.5628 2.35478 15.4992 2.39104 13.4364C2.4108 13.1436 2.3304 12.8539 2.16437 12.6173C1.99842 12.3815 1.75761 12.2152 1.48516 12.1488C0.921504 12.0091 0.363086 12.33 0.102042 12.9288H0.0086734V21.5183L0.0449258 21.5495H0.091649C0.309485 22.1656 0.625847 22.4022 1.28287 22.4045C4.31882 22.4045 7.35477 22.4045 10.3907 22.4045C10.7865 22.4006 11.1805 22.3483 11.5647 22.2483C14.5764 21.4808 16.537 18.3163 14.7838 15.0463C14.32 14.2008 13.6675 13.4855 12.8821 12.9616L13.3264 12.5775C15.3527 10.7903 16.0252 8.03876 14.9689 5.49729Z" fill="#497474"/>
<path d="M71.0663 7.81628C71.0788 7.11044 70.9585 6.40852 70.7124 5.7511C69.4638 2.53035 67.0588 1.02732 63.8343 0.751701C63.8327 0.722811 63.8327 0.693928 63.8343 0.665039H56.7976V0.751701C56.0358 0.947679 55.7951 1.25219 55.7951 2.03063C55.7951 4.47216 55.7951 6.91447 55.7951 9.35755C55.7912 9.56915 55.8405 9.7784 55.9381 9.96423C56.0358 10.1493 56.1788 10.3047 56.3522 10.4132C56.5257 10.5225 56.7234 10.5818 56.9249 10.585C57.1273 10.5881 57.3265 10.535 57.5031 10.4319C58.0446 10.1508 58.143 9.65114 58.1415 9.09131C58.1415 7.19868 58.1415 5.30761 58.1415 3.41498C58.1415 3.09954 58.2173 3.01053 58.5251 3.01443C60.2542 3.0363 61.9935 3.01443 63.7272 3.04489C66.5283 3.10344 68.8833 5.43644 68.7411 8.38703C68.6356 10.5818 68.7223 12.7883 68.7184 14.9909C68.7325 15.3517 68.7082 15.7124 68.6457 16.0669C68.3941 17.1545 67.8167 18.1297 66.9995 18.8496C66.1814 19.5695 65.1649 19.9974 64.0991 20.07C62.3497 20.1769 60.5996 20.0989 58.8501 20.1192C58.1587 20.1192 58.1587 20.1192 58.1587 19.3797C58.1485 17.3513 58.1587 15.3204 58.1173 13.2935C58.1032 12.5689 57.5985 12.1458 56.907 12.1723C56.2155 12.1996 55.8108 12.6509 55.8108 13.4059C55.8108 15.9349 55.8108 18.4631 55.8108 20.9921C55.8108 21.9993 56.1842 22.3905 57.1507 22.392C59.2979 22.392 61.445 22.392 63.5928 22.392C64.868 22.41 66.1267 22.0883 67.2511 21.4574C69.7216 20.0317 71.1288 17.922 71.096 14.8863C71.0444 12.5291 71.0577 10.1727 71.0663 7.81628Z" fill="#497474"/>
<path d="M109.236 13.5254C109.256 12.4385 108.857 12.0364 107.813 12.0349C105.816 12.0349 103.817 12.0349 101.82 12.0349C101.589 12.0216 101.357 12.0575 101.139 12.1418C100.693 12.3448 100.411 12.6978 100.425 13.2139C100.428 13.4497 100.504 13.6784 100.641 13.8658C100.779 14.0524 100.97 14.1875 101.187 14.25C101.362 14.2999 101.543 14.3187 101.723 14.3062C103.309 14.3062 104.894 14.3062 106.48 14.3062C106.653 14.3062 106.882 14.2172 106.896 14.567C106.965 16.2784 106.523 17.7588 105.167 18.8363C103.373 20.2605 101.412 20.4924 99.3378 19.6429C97.6088 18.9308 96.2258 17.1732 96.3047 14.9745C96.3953 12.6197 96.343 10.2648 96.3188 7.91074C96.3047 6.51938 96.8532 5.40363 97.8072 4.50651C99.8824 2.56156 103.096 2.52721 105.254 4.38548C105.897 4.93984 106.696 4.90705 107.143 4.30975C107.548 3.76632 107.408 3.12998 106.727 2.59748C103.923 0.402688 100.89 0.121596 97.7955 1.72299C95.3249 2.99099 93.9224 5.12255 93.9576 8.11141C93.9709 9.24746 93.9576 10.3812 93.9576 11.5164C93.9576 12.7719 93.9693 14.0274 93.9576 15.2829C93.9193 16.7953 94.4248 18.2679 95.3734 19.4086C97.5416 22.0516 100.343 22.8995 103.528 22.1461C106.295 21.4902 108.281 19.7764 109.075 16.8133C109.365 15.7319 109.213 14.6232 109.236 13.5254Z" fill="#497474"/>
<path d="M31.4784 12.2285C30.7211 12.1942 30.2215 12.6939 30.2163 13.5348C30.2059 15.5836 30.2042 17.63 30.2163 19.6772C30.2163 20.0395 30.1125 20.1356 29.772 20.1317C28.1693 20.1137 26.5666 20.1317 24.9639 20.1207C24.5025 20.1223 24.0423 20.0715 23.5911 19.97C21.0652 19.3688 19.568 17.1264 19.6147 14.8988C19.6994 10.6513 19.6406 6.40149 19.6388 2.15244C19.6388 1.317 19.466 1.04372 18.7347 0.755608C18.7303 0.725938 18.7303 0.694709 18.7347 0.665039H18.2385C18.2402 0.693928 18.2402 0.722812 18.2385 0.751701C17.4829 1.0039 17.2703 1.30607 17.2685 2.14308V15.2533C17.2646 15.7186 17.3157 16.1824 17.4207 16.6337C18.0967 19.4375 19.8757 21.1318 22.4431 22.0243C23.1505 22.2656 23.8899 22.3881 24.6337 22.3866C26.864 22.3952 29.0942 22.3952 31.3246 22.3866C32.1267 22.3866 32.5953 21.9501 32.597 21.2091C32.597 18.6122 32.597 16.0153 32.597 13.4208C32.6 13.2646 32.5733 13.11 32.5184 12.9656C32.4634 12.8204 32.3815 12.6892 32.2772 12.5775C32.173 12.4667 32.0487 12.3784 31.9115 12.3191C31.7743 12.259 31.6271 12.2285 31.4784 12.2285Z" fill="#497474"/>
<path d="M84.9433 0.751701C84.9433 0.722812 84.9433 0.693928 84.9433 0.665039H77.902C77.9035 0.693928 77.9035 0.722812 77.902 0.751701C77.1409 0.946117 76.8644 1.27717 76.8644 2.07983C76.8644 3.98729 76.8644 5.89633 76.8644 7.80536C76.8644 8.3035 76.8526 8.80321 76.8753 9.29979C76.8706 9.54496 76.9448 9.78466 77.0847 9.98142C77.2246 10.1782 77.4222 10.3203 77.648 10.3866C78.5309 10.6888 79.2334 10.1149 79.2404 9.04057C79.2537 7.18463 79.2537 5.32791 79.2404 3.47119C79.2404 3.1089 79.3349 3.016 79.6772 3.02146C81.2781 3.03942 82.8791 3.02146 84.4824 3.02146C85.0426 3.01678 85.602 3.09173 86.1435 3.24242C88.2304 3.84207 89.8783 5.81122 89.8282 8.2223C89.7415 12.4838 89.8142 16.7501 89.8282 21.014C89.8282 21.8869 90.272 22.3991 91.0159 22.392C91.7589 22.385 92.1894 21.8814 92.1894 21.0085C92.1894 16.6228 92.1894 12.2379 92.1894 7.85454C92.2027 6.69663 91.9035 5.55902 91.3253 4.5721C89.8572 2.09935 87.6546 0.94924 84.9433 0.751701Z" fill="#497474"/>
<path d="M53.0907 20.1605C52.8782 20.13 52.6641 20.1168 52.4492 20.1207C48.8496 20.1207 45.25 20.1207 41.652 20.1207C41.2254 20.1207 41.0402 20.0465 41.0699 19.5429C41.116 18.7551 41.0699 17.9618 41.0832 17.1716C41.0918 15.9036 41.116 14.6356 41.1113 13.3591C41.1113 12.558 40.6339 12.0583 39.9354 12.0598C39.1994 12.0598 38.7529 12.558 38.7529 13.377V20.9592C38.7529 21.9915 39.1283 22.3811 40.1362 22.3826H52.6102C52.7914 22.3889 52.9727 22.374 53.1509 22.3397C53.3993 22.2913 53.622 22.1523 53.7806 21.9469C53.9392 21.7408 54.0221 21.4832 54.015 21.2192C54.0072 20.9553 53.9103 20.7024 53.7408 20.5072C53.5712 20.312 53.3407 20.1863 53.0907 20.1535V20.1605Z" fill="#497474"/>
<path d="M35.6437 0.788418C35.4916 0.782171 35.34 0.808711 35.1982 0.866489C35.0564 0.925048 34.9276 1.01328 34.8198 1.12571C34.7118 1.23814 34.6273 1.37244 34.5712 1.52079C34.5152 1.66914 34.4889 1.82764 34.494 1.98692C34.494 8.40031 34.494 14.8137 34.494 21.2271C34.4839 21.4863 34.565 21.7408 34.7222 21.9407C34.8901 22.1422 35.1116 22.2851 35.3581 22.353C35.6047 22.4209 35.8649 22.41 36.1054 22.321C36.5756 22.1398 36.8176 21.7541 36.8176 21.1529C36.8176 17.9892 36.8176 14.8254 36.8176 11.6617C36.8176 8.44716 36.8176 5.23187 36.8176 2.01581C36.8256 1.85262 36.8007 1.68866 36.7445 1.53641C36.6882 1.38337 36.6021 1.24439 36.4914 1.12883C36.3807 1.0125 36.2481 0.922713 36.1021 0.864154C35.956 0.805595 35.7999 0.779829 35.6437 0.788418Z" fill="#497474"/>
<path d="M31.6217 0.755607V0.668945H31.1203C31.1246 0.698615 31.1246 0.729064 31.1203 0.759515C30.4945 0.940657 30.2126 1.38258 30.2144 2.05249C30.2144 4.4581 30.2144 6.86136 30.2144 9.26697C30.2144 10.0532 30.6968 10.535 31.4143 10.535C32.1318 10.535 32.5881 10.0462 32.5881 9.26697C32.5881 6.8801 32.5881 4.49245 32.5881 2.1048C32.5916 1.3084 32.3669 0.999993 31.6217 0.755607Z" fill="#497474"/>
<path d="M39.9049 10.4694C40.4425 10.4538 41.1254 10.0751 41.0941 9.18731C41.0512 8.00285 41.084 6.81606 41.084 5.6316C41.084 4.44715 41.084 3.26036 41.084 2.07591C41.084 1.2717 40.6425 0.788391 39.9252 0.788391C39.208 0.788391 38.7549 1.26232 38.7549 2.05638V9.16702C38.7532 9.95717 39.222 10.4912 39.9049 10.4694Z" fill="#497474"/>
</svg>
